<svg width="600" height="400" xmlns="http://www.w3.org/2000/svg">
  <!-- 背景 -->
  <rect width="600" height="400" fill="#f5f5f5"/>
  
  <!-- 桌面 -->
  <rect x="0" y="250" width="600" height="150" fill="#e0e0e0"/>
  
  <!-- 桌面阴影 -->
  <rect x="0" y="250" width="600" height="10" fill="#d0d0d0"/>
  
  <!-- 笔记本电脑主体 -->
  <rect x="150" y="180" width="300" height="200" rx="5" ry="5" fill="#2c3e50"/>
  
  <!-- 笔记本电脑屏幕 -->
  <rect x="170" y="190" width="260" height="160" fill="#34495e"/>
  
  <!-- 屏幕内容（简单模拟） -->
  <rect x="190" y="210" width="220" height="120" fill="#3a506b"/>
  
  <!-- 屏幕边框 -->
  <rect x="165" y="185" width="270" height="170" rx="3" ry="3" fill="none" stroke="#1a252f" stroke-width="5"/>
  
  <!-- 笔记本电脑键盘 -->
  <rect x="155" y="355" width="290" height="20" rx="2" ry="2" fill="#1a252f"/>
  
  <!-- 键盘按钮（简单模拟） -->
  <g fill="#34495e">
    <rect x="170" y="357" width="16" height="16" rx="1" ry="1"/>
    <rect x="190" y="357" width="16" height="16" rx="1" ry="1"/>
    <rect x="210" y="357" width="16" height="16" rx="1" ry="1"/>
    <rect x="230" y="357" width="16" height="16" rx="1" ry="1"/>
    <rect x="250" y="357" width="16" height="16" rx="1" ry="1"/>
    <rect x="270" y="357" width="16" height="16" rx="1" ry="1"/>
    <rect x="290" y="357" width="16" height="16" rx="1" ry="1"/>
    <rect x="310" y="357" width="16" height="16" rx="1" ry="1"/>
    <rect x="330" y="357" width="16" height="16" rx="1" ry="1"/>
    <rect x="350" y="357" width="16" height="16" rx="1" ry="1"/>
    <rect x="370" y="357" width="16" height="16" rx="1" ry="1"/>
    <rect x="390" y="357" width="16" height="16" rx="1" ry="1"/>
  </g>
  
  <!-- 笔记本电脑触控板 -->
  <rect x="220" y="375" width="160" height="20" rx="2" ry="2" fill="#34495e"/>
  
  <!-- 桌上物品（简单装饰） -->
  <circle cx="100" cy="240" r="20" fill="#e67e22"/>
  <circle cx="480" cy="240" r="15" fill="#3498db"/>
  
  <!-- 桌面纹理 -->
  <line x1="0" y1="280" x2="600" y2="280" stroke="#d9d9d9" stroke-width="1"/>
  <line x1="0" y1="310" x2="600" y2="310" stroke="#d9d9d9" stroke-width="1"/>
  <line x1="0" y1="340" x2="600" y2="340" stroke="#d9d9d9" stroke-width="1"/>
</svg>