<svg width="600" height="400" xmlns="http://www.w3.org/2000/svg">
  <!-- 背景 -->
  <rect width="600" height="400" fill="#1a1a2e"/>
  
  <!-- 背景光晕效果 -->
  <circle cx="300" cy="200" r="200" fill="#16213e" opacity="0.5"/>
  <circle cx="300" cy="200" r="150" fill="#0f3460" opacity="0.3"/>
  
  <!-- 工程师剪影（简单表示） -->
  <ellipse cx="250" cy="220" rx="40" ry="80" fill="#2a2a2a"/>
  
  <!-- 头部 -->
  <circle cx="250" cy="160" r="25" fill="#2a2a2a"/>
  
  <!-- 全息屏幕 -->
  <rect x="280" y="100" width="200" height="180" rx="10" ry="10" fill="#00ffff" opacity="0.2"/>
  
  <!-- 全息屏幕边框 -->
  <rect x="275" y="95" width="210" height="190" rx="12" ry="12" fill="none" stroke="#00ffff" stroke-width="2" opacity="0.5"/>
  
  <!-- 全息屏幕数据（简化表示） -->
  <g stroke="#00ffff" stroke-width="1" opacity="0.8">
    <!-- 水平线 -->
    <line x1="290" y1="130" x2="470" y2="130"/>
    <line x1="290" y1="160" x2="470" y2="160"/>
    <line x1="290" y1="190" x2="470" y2="190"/>
    <line x1="290" y1="220" x2="470" y2="220"/>
    <line x1="290" y1="250" x2="470" y2="250"/>
    <!-- 垂直线 -->
    <line x1="320" y1="110" x2="320" y2="270"/>
    <line x1="360" y1="110" x2="360" y2="270"/>
    <line x1="400" y1="110" x2="400" y2="270"/>
    <line x1="440" y1="110" x2="440" y2="270"/>
  </g>
  
  <!-- 全息数据点 -->
  <g fill="#00ffff" opacity="0.7">
    <circle cx="320" cy="140" r="3"/>
    <circle cx="360" cy="170" r="3"/>
    <circle cx="400" cy="130" r="3"/>
    <circle cx="440" cy="150" r="3"/>
    <circle cx="320" cy="200" r="3"/>
    <circle cx="360" cy="220" r="3"/>
    <circle cx="400" cy="190" r="3"/>
    <circle cx="440" cy="240" r="3"/>
    <circle cx="320" cy="250" r="3"/>
    <circle cx="360" cy="230" r="3"/>
    <circle cx="400" cy="260" r="3"/>
    <circle cx="440" cy="210" r="3"/>
  </g>
  
  <!-- 工程师的手 -->
  <ellipse cx="300" cy="220" rx="10" ry="15" fill="#2a2a2a"/>
  
  <!-- 指向手势 -->
  <line x1="300" y1="220" x2="320" y2="200" stroke="#2a2a2a" stroke-width="3"/>
  
  <!-- 全息投影效果 -->
  <g opacity="0.3">
    <rect x="280" y="100" width="200" height="180" rx="10" ry="10" fill="#00ffff"/>
    <rect x="290" y="110" width="180" height="160" rx="8" ry="8" fill="#00ffff"/>
    <rect x="300" y="120" width="160" height="140" rx="6" ry="6" fill="#00ffff"/>
  </g>
  
  <!-- 装饰性网格线 -->
  <g stroke="#0f3460" stroke-width="1" opacity="0.2">
    <line x1="0" y1="100" x2="600" y2="100"/>
    <line x1="0" y1="200" x2="600" y2="200"/>
    <line x1="0" y1="300" x2="600" y2="300"/>
    <line x1="100" y1="0" x2="100" y2="400"/>
    <line x1="200" y1="0" x2="200" y2="400"/>
    <line x1="300" y1="0" x2="300" y2="400"/>
    <line x1="400" y1="0" x2="400" y2="400"/>
    <line x1="500" y1="0" x2="500" y2="400"/>
  </g>
  
  <!-- 底部装饰光效 -->
  <rect x="0" y="350" width="600" height="50" fill="#00ffff" opacity="0.05"/>
</svg>