<svg width="600" height="400" xmlns="http://www.w3.org/2000/svg">
  <!-- 背景 -->
  <rect width="600" height="400" fill="#f5f5f5"/>
  
  <!-- 地板 -->
  <rect x="0" y="200" width="600" height="200" fill="#e0e0e0"/>
  
  <!-- 地板纹理 -->
  <g stroke="#d0d0d0" stroke-width="1">
    <line x1="0" y1="250" x2="600" y2="250"/>
    <line x1="0" y1="300" x2="600" y2="300"/>
    <line x1="0" y1="350" x2="600" y2="350"/>
  </g>
  
  <!-- 墙面 -->
  <rect x="0" y="0" width="600" height="200" fill="#fafafa"/>
  
  <!-- 左侧墙 -->
  <polygon points="0,0 0,200 150,200 150,0" fill="#f0f0f0"/>
  
  <!-- 右侧墙 -->
  <polygon points="450,0 450,200 600,200 600,0" fill="#f0f0f0"/>
  
  <!-- 窗户 -->
  <rect x="170" y="50" width="360" height="100" fill="#e3f2fd"/>
  <line x1="350" y1="50" x2="350" y2="150" stroke="#90caf9" stroke-width="2"/>
  <line x1="170" y1="100" x2="530" y2="100" stroke="#90caf9" stroke-width="2"/>
  
  <!-- 窗外景色（简单表示） -->
  <rect x="175" y="55" width="170" height="40" fill="#81c784" opacity="0.4"/>
  <rect x="355" y="55" width="170" height="40" fill="#81c784" opacity="0.4"/>
  <rect x="175" y="105" width="170" height="40" fill="#4fc3f7" opacity="0.4"/>
  <rect x="355" y="105" width="170" height="40" fill="#4fc3f7" opacity="0.4"/>
  
  <!-- 沙发 -->
  <rect x="180" y="250" width="240" height="80" rx="10" ry="10" fill="#7986cb"/>
  <rect x="180" y="230" width="240" height="30" rx="5" ry="5" fill="#7986cb"/>
  
  <!-- 沙发坐垫 -->
  <rect x="190" y="260" width="220" height="60" rx="5" ry="5" fill="#9fa8da"/>
  
  <!-- 沙发靠背 -->
  <rect x="180" y="220" width="240" height="20" rx="5" ry="5" fill="#5c6bc0"/>
  
  <!-- 咖啡桌 -->
  <rect x="250" y="335" width="100" height="25" rx="5" ry="5" fill="#a1887f"/>
  <rect x="270" y="320" width="60" height="15" rx="5" ry="5" fill="#d7ccc8"/>
  
  <!-- 装饰画 -->
  <rect x="280" y="20" width="40" height="40" rx="2" ry="2" fill="#81c784"/>
  <rect x="340" y="20" width="40" height="40" rx="2" ry="2" fill="#4fc3f7"/>
  <rect x="400" y="20" width="40" height="40" rx="2" ry="2" fill="#ffb74d"/>
  
  <!-- 落地灯 -->
  <circle cx="100" cy="230" r="20" fill="#f5f5f5"/>
  <line x1="100" y1="230" x2="100" y2="270" stroke="#a1887f" stroke-width="4"/>
  
  <!-- 地毯 -->
  <rect x="170" y="250" width="260" height="90" rx="10" ry="10" fill="#d7ccc8" opacity="0.3"/>
  
  <!-- 墙面装饰 -->
  <line x1="150" y1="30" x2="450" y2="30" stroke="#e0e0e0" stroke-width="2"/>
  <line x1="150" y1="170" x2="450" y2="170" stroke="#e0e0e0" stroke-width="2"/>
</svg>