<svg width="600" height="400" xmlns="http://www.w3.org/2000/svg">
  <!-- 背景 -->
  <rect width="600" height="400" fill="#f8f9fa"/>
  
  <!-- 工作桌 -->
  <rect x="0" y="250" width="600" height="150" fill="#e0e0e0"/>
  
  <!-- 桌面纹理 -->
  <g stroke="#d0d0d0" stroke-width="1">
    <line x1="0" y1="280" x2="600" y2="280"/>
    <line x1="0" y1="310" x2="600" y2="310"/>
    <line x1="0" y1="340" x2="600" y2="340"/>
    <line x1="0" y1="370" x2="600" y2="370"/>
  </g>
  
  <!-- 人物剪影（简单表示） -->
  <ellipse cx="300" cy="200" rx="50" ry="70" fill="#333"/>
  
  <!-- 头部 -->
  <circle cx="300" cy="150" r="30" fill="#333"/>
  
  <!-- 电脑显示器 -->
  <rect x="220" y="150" width="160" height="100" rx="5" ry="5" fill="#212121"/>
  
  <!-- 显示器边框 -->
  <rect x="215" y="145" width="170" height="110" rx="7" ry="7" fill="none" stroke="#424242" stroke-width="2"/>
  
  <!-- 显示器底座 -->
  <rect x="265" y="250" width="70" height="10" rx="2" ry="2" fill="#424242"/>
  <rect x="290" y="260" width="20" height="20" rx="2" ry="2" fill="#424242"/>
  
  <!-- 显示器内容（视频编辑界面简化表示） -->
  <rect x="230" y="160" width="140" height="80" fill="#121212"/>
  
  <!-- 视频预览区 -->
  <rect x="235" y="165" width="130" height="70" fill="#1a1a1a"/>
  
  <!-- 视频编辑时间线（简化表示） -->
  <rect x="235" y="220" width="130" height="15" fill="#2a2a2a"/>
  <rect x="245" y="222" width="40" height="11" fill="#ff5722"/>
  <rect x="295" y="222" width="30" height="11" fill="#e91e63"/>
  <rect x="335" y="222" width="25" height="11" fill="#9c27b0"/>
  
  <!-- 键盘 -->
  <rect x="250" y="270" width="100" height="50" rx="3" ry="3" fill="#424242"/>
  
  <!-- 键盘按键（简化表示） -->
  <g fill="#616161">
    <!-- 第一行 -->
    <rect x="255" y="275" width="8" height="8" rx="1" ry="1"/>
    <rect x="265" y="275" width="8" height="8" rx="1" ry="1"/>
    <rect x="275" y="275" width="8" height="8" rx="1" ry="1"/>
    <rect x="285" y="275" width="8" height="8" rx="1" ry="1"/>
    <rect x="295" y="275" width="8" height="8" rx="1" ry="1"/>
    <rect x="305" y="275" width="8" height="8" rx="1" ry="1"/>
    <rect x="315" y="275" width="8" height="8" rx="1" ry="1"/>
    <rect x="325" y="275" width="8" height="8" rx="1" ry="1"/>
    <rect x="335" y="275" width="8" height="8" rx="1" ry="1"/>
    <!-- 第二行 -->
    <rect x="255" y="285" width="8" height="8" rx="1" ry="1"/>
    <rect x="265" y="285" width="8" height="8" rx="1" ry="1"/>
    <rect x="275" y="285" width="8" height="8" rx="1" ry="1"/>
    <rect x="285" y="285" width="8" height="8" rx="1" ry="1"/>
    <rect x="295" y="285" width="8" height="8" rx="1" ry="1"/>
    <rect x="305" y="285" width="8" height="8" rx="1" ry="1"/>
    <rect x="315" y="285" width="8" height="8" rx="1" ry="1"/>
    <rect x="325" y="285" width="8" height="8" rx="1" ry="1"/>
    <rect x="335" y="285" width="8" height="8" rx="1" ry="1"/>
    <!-- 第三行 -->
    <rect x="255" y="295" width="8" height="8" rx="1" ry="1"/>
    <rect x="265" y="295" width="8" height="8" rx="1" ry="1"/>
    <rect x="275" y="295" width="8" height="8" rx="1" ry="1"/>
    <rect x="285" y="295" width="8" height="8" rx="1" ry="1"/>
    <rect x="295" y="295" width="8" height="8" rx="1" ry="1"/>
    <rect x="305" y="295" width="8" height="8" rx="1" ry="1"/>
    <rect x="315" y="295" width="8" height="8" rx="1" ry="1"/>
    <rect x="325" y="295" width="8" height="8" rx="1" ry="1"/>
    <rect x="335" y="295" width="8" height="8" rx="1" ry="1"/>
  </g>
  
  <!-- 鼠标 -->
  <rect x="370" y="280" width="25" height="15" rx="3" ry="3" fill="#616161"/>
  
  <!-- 装饰物品 -->
  <rect x="180" y="250" width="30" height="30" rx="3" ry="3" fill="#e0e0e0"/>
  <rect x="400" y="250" width="20" height="20" rx="2" ry="2" fill="#2196f3"/>
</svg>